<svg xmlns="http://www.w3.org/2000/svg" xmlns:xlink="http://www.w3.org/1999/xlink" width="500" zoomAndPan="magnify" viewBox="0 0 375 374.999991" height="500" preserveAspectRatio="xMidYMid meet" version="1.0"><defs><g/></defs><rect x="-37.5" width="450" fill="#ffffff" y="-37.499999" height="449.999989" fill-opacity="1"/><rect x="-37.5" width="450" fill="#669294" y="-37.499999" height="449.999989" fill-opacity="1"/><g fill="#ffffff" fill-opacity="1"><g transform="translate(202.537755, 160.775454)"><g><path d="M 5.90625 0.140625 C 4.882812 0.140625 3.96875 -0.0703125 3.15625 -0.5 C 2.34375 -0.925781 1.707031 -1.515625 1.25 -2.265625 C 0.800781 -3.023438 0.578125 -3.882812 0.578125 -4.84375 C 0.578125 -5.800781 0.800781 -6.65625 1.25 -7.40625 C 1.707031 -8.164062 2.34375 -8.757812 3.15625 -9.1875 C 3.96875 -9.613281 4.882812 -9.828125 5.90625 -9.828125 C 6.925781 -9.828125 7.835938 -9.613281 8.640625 -9.1875 C 9.441406 -8.757812 10.070312 -8.164062 10.53125 -7.40625 C 10.988281 -6.65625 11.21875 -5.800781 11.21875 -4.84375 C 11.21875 -3.882812 10.988281 -3.023438 10.53125 -2.265625 C 10.070312 -1.515625 9.441406 -0.925781 8.640625 -0.5 C 7.835938 -0.0703125 6.925781 0.140625 5.90625 0.140625 Z M 5.90625 -2.15625 C 6.625 -2.15625 7.210938 -2.398438 7.671875 -2.890625 C 8.140625 -3.378906 8.375 -4.03125 8.375 -4.84375 C 8.375 -5.65625 8.140625 -6.304688 7.671875 -6.796875 C 7.210938 -7.285156 6.625 -7.53125 5.90625 -7.53125 C 5.1875 -7.53125 4.59375 -7.285156 4.125 -6.796875 C 3.65625 -6.304688 3.421875 -5.65625 3.421875 -4.84375 C 3.421875 -4.03125 3.65625 -3.378906 4.125 -2.890625 C 4.59375 -2.398438 5.1875 -2.15625 5.90625 -2.15625 Z M 5.90625 -2.15625 "/></g></g></g><g fill="#ffffff" fill-opacity="1"><g transform="translate(212.95972, 160.775454)"><g><path d="M 13.703125 -9.828125 C 14.910156 -9.828125 15.867188 -9.46875 16.578125 -8.75 C 17.296875 -8.039062 17.65625 -6.972656 17.65625 -5.546875 L 17.65625 0 L 14.84375 0 L 14.84375 -5.109375 C 14.84375 -5.878906 14.679688 -6.453125 14.359375 -6.828125 C 14.046875 -7.203125 13.597656 -7.390625 13.015625 -7.390625 C 12.359375 -7.390625 11.835938 -7.175781 11.453125 -6.75 C 11.066406 -6.332031 10.875 -5.703125 10.875 -4.859375 L 10.875 0 L 8.0625 0 L 8.0625 -5.109375 C 8.0625 -6.628906 7.453125 -7.390625 6.234375 -7.390625 C 5.578125 -7.390625 5.054688 -7.175781 4.671875 -6.75 C 4.296875 -6.332031 4.109375 -5.703125 4.109375 -4.859375 L 4.109375 0 L 1.296875 0 L 1.296875 -9.6875 L 3.984375 -9.6875 L 3.984375 -8.5625 C 4.335938 -8.976562 4.773438 -9.289062 5.296875 -9.5 C 5.816406 -9.71875 6.390625 -9.828125 7.015625 -9.828125 C 7.703125 -9.828125 8.320312 -9.691406 8.875 -9.421875 C 9.425781 -9.148438 9.867188 -8.757812 10.203125 -8.25 C 10.597656 -8.75 11.097656 -9.132812 11.703125 -9.40625 C 12.316406 -9.6875 12.984375 -9.828125 13.703125 -9.828125 Z M 13.703125 -9.828125 "/></g></g></g><g fill="#ffffff" fill-opacity="1"><g transform="translate(230.47366, 160.775454)"><g><path d="M 10.78125 -4.8125 C 10.78125 -4.769531 10.765625 -4.515625 10.734375 -4.046875 L 3.40625 -4.046875 C 3.53125 -3.453125 3.835938 -2.976562 4.328125 -2.625 C 4.828125 -2.28125 5.441406 -2.109375 6.171875 -2.109375 C 6.679688 -2.109375 7.128906 -2.179688 7.515625 -2.328125 C 7.898438 -2.484375 8.265625 -2.722656 8.609375 -3.046875 L 10.09375 -1.421875 C 9.1875 -0.378906 7.859375 0.140625 6.109375 0.140625 C 5.015625 0.140625 4.046875 -0.0703125 3.203125 -0.5 C 2.359375 -0.925781 1.707031 -1.515625 1.25 -2.265625 C 0.800781 -3.023438 0.578125 -3.882812 0.578125 -4.84375 C 0.578125 -5.789062 0.800781 -6.644531 1.25 -7.40625 C 1.695312 -8.164062 2.3125 -8.757812 3.09375 -9.1875 C 3.882812 -9.613281 4.765625 -9.828125 5.734375 -9.828125 C 6.679688 -9.828125 7.539062 -9.625 8.3125 -9.21875 C 9.082031 -8.8125 9.6875 -8.222656 10.125 -7.453125 C 10.5625 -6.691406 10.78125 -5.8125 10.78125 -4.8125 Z M 5.765625 -7.703125 C 5.128906 -7.703125 4.59375 -7.519531 4.15625 -7.15625 C 3.726562 -6.800781 3.460938 -6.3125 3.359375 -5.6875 L 8.140625 -5.6875 C 8.035156 -6.300781 7.769531 -6.789062 7.34375 -7.15625 C 6.914062 -7.519531 6.390625 -7.703125 5.765625 -7.703125 Z M 5.765625 -7.703125 "/></g></g></g><g fill="#ffffff" fill-opacity="1"><g transform="translate(242.675029, 200.559654)"><g><path d="M 17.453125 -33.984375 L 25.84375 -33.984375 L 25.84375 -24.734375 L 17.78125 -24.734375 L 17.78125 0 L 5.40625 0 L 5.40625 -24.734375 L 0.265625 -24.734375 L 0.265625 -33.984375 L 5.40625 -33.984375 L 5.40625 -34.90625 C 5.40625 -39.195312 6.695312 -42.597656 9.28125 -45.109375 C 11.863281 -47.628906 15.476562 -48.890625 20.125 -48.890625 C 21.6875 -48.890625 23.203125 -48.738281 24.671875 -48.4375 C 26.148438 -48.132812 27.367188 -47.679688 28.328125 -47.078125 L 25.265625 -38.34375 C 24.046875 -39.039062 22.804688 -39.390625 21.546875 -39.390625 C 20.242188 -39.390625 19.234375 -39 18.515625 -38.21875 C 17.804688 -37.4375 17.453125 -36.285156 17.453125 -34.765625 Z M 17.453125 -33.984375 "/></g></g></g><g fill="#ffffff" fill-opacity="1"><g transform="translate(144.860825, 200.261089)"><g><path d="M 36.4375 -48.484375 C 42.351562 -48.484375 47.113281 -46.722656 50.71875 -43.203125 C 54.332031 -39.679688 56.140625 -34.375 56.140625 -27.28125 L 56.140625 0 L 39.421875 0 L 39.421875 -24.546875 C 39.421875 -31.054688 36.8125 -34.3125 31.59375 -34.3125 C 28.71875 -34.3125 26.414062 -33.375 24.6875 -31.5 C 22.957031 -29.625 22.09375 -26.8125 22.09375 -23.0625 L 22.09375 0 L 5.375 0 L 5.375 -65.296875 L 22.09375 -65.296875 L 22.09375 -43.296875 C 23.90625 -44.992188 26.039062 -46.28125 28.5 -47.15625 C 30.96875 -48.039062 33.613281 -48.484375 36.4375 -48.484375 Z M 36.4375 -48.484375 "/></g></g></g><g fill="#ffffff" fill-opacity="1"><g transform="translate(188.023924, 200.559654)"><g/></g></g><g fill="#ffffff" fill-opacity="1"><g transform="translate(202.027829, 200.559654)"><g><path d="M 40.046875 -17.578125 C 40.046875 -17.492188 39.976562 -16.472656 39.84375 -14.515625 L 14.1875 -14.515625 C 14.707031 -12.691406 15.71875 -11.289062 17.21875 -10.3125 C 18.71875 -9.34375 20.597656 -8.859375 22.859375 -8.859375 C 24.546875 -8.859375 26.007812 -9.09375 27.25 -9.5625 C 28.488281 -10.039062 29.734375 -10.828125 30.984375 -11.921875 L 37.5 -5.140625 C 34.070312 -1.316406 29.0625 0.59375 22.46875 0.59375 C 18.34375 0.59375 14.71875 -0.1875 11.59375 -1.75 C 8.46875 -3.320312 6.046875 -5.492188 4.328125 -8.265625 C 2.617188 -11.046875 1.765625 -14.191406 1.765625 -17.703125 C 1.765625 -21.179688 2.597656 -24.296875 4.265625 -27.046875 C 5.929688 -29.804688 8.238281 -31.96875 11.1875 -33.53125 C 14.144531 -35.09375 17.46875 -35.875 21.15625 -35.875 C 24.675781 -35.875 27.867188 -35.144531 30.734375 -33.6875 C 33.597656 -32.238281 35.863281 -30.132812 37.53125 -27.375 C 39.207031 -24.625 40.046875 -21.359375 40.046875 -17.578125 Z M 21.21875 -27.078125 C 19.3125 -27.078125 17.71875 -26.535156 16.4375 -25.453125 C 15.15625 -24.367188 14.34375 -22.894531 14 -21.03125 L 28.453125 -21.03125 C 28.109375 -22.894531 27.296875 -24.367188 26.015625 -25.453125 C 24.734375 -26.535156 23.132812 -27.078125 21.21875 -27.078125 Z M 21.21875 -27.078125 "/></g></g></g><g fill="#ffffff" fill-opacity="1"><g transform="translate(110.642412, 200.559654)"><g><path d="M 21.609375 0.515625 C 17.878906 0.515625 14.523438 -0.253906 11.546875 -1.796875 C 8.578125 -3.335938 6.253906 -5.472656 4.578125 -8.203125 C 2.910156 -10.941406 2.078125 -14.046875 2.078125 -17.515625 C 2.078125 -20.984375 2.910156 -24.082031 4.578125 -26.8125 C 6.253906 -29.550781 8.578125 -31.691406 11.546875 -33.234375 C 14.523438 -34.773438 17.878906 -35.546875 21.609375 -35.546875 C 25.304688 -35.546875 28.53125 -34.773438 31.28125 -33.234375 C 34.039062 -31.691406 36.050781 -29.488281 37.3125 -26.625 L 29.421875 -22.390625 C 27.597656 -25.609375 24.972656 -27.21875 21.546875 -27.21875 C 18.898438 -27.21875 16.707031 -26.347656 14.96875 -24.609375 C 13.238281 -22.867188 12.375 -20.503906 12.375 -17.515625 C 12.375 -14.515625 13.238281 -12.144531 14.96875 -10.40625 C 16.707031 -8.675781 18.898438 -7.8125 21.546875 -7.8125 C 25.023438 -7.8125 27.648438 -9.414062 29.421875 -12.625 L 37.3125 -8.328125 C 36.050781 -5.554688 34.039062 -3.390625 31.28125 -1.828125 C 28.53125 -0.265625 25.304688 0.515625 21.609375 0.515625 Z M 21.609375 0.515625 "/></g></g></g></svg>